<mxfile host="65bd71144e">
    <diagram id="YrSzpa-H51OLec4P3ytI" name="Page-1">
        <mxGraphModel dx="830" dy="633" grid="1" gridSize="10" guides="1" tooltips="1" connect="1" arrows="1" fold="1" page="1" pageScale="1" pageWidth="850" pageHeight="1100" background="#FFFFFF" math="0" shadow="0">
            <root>
                <mxCell id="0"/>
                <mxCell id="1" parent="0"/>
                <mxCell id="10" style="edgeStyle=none;html=1;entryX=0;entryY=0.5;entryDx=0;entryDy=0;startArrow=none;endArrow=open;endFill=0;strokeColor=#000000;exitX=1;exitY=0.5;exitDx=0;exitDy=0;" parent="1" source="274" target="284" edge="1">
                    <mxGeometry relative="1" as="geometry">
                        <mxPoint x="151.9999999999999" y="127.5" as="sourcePoint"/>
                        <mxPoint x="285" y="127.5" as="targetPoint"/>
                    </mxGeometry>
                </mxCell>
                <mxCell id="12" value="/gazebo/scan" style="edgeLabel;html=1;align=center;verticalAlign=middle;resizable=0;points=[];" parent="10" vertex="1" connectable="0">
                    <mxGeometry x="0.32" y="-4" relative="1" as="geometry">
                        <mxPoint x="-26" y="-14" as="offset"/>
                    </mxGeometry>
                </mxCell>
                <mxCell id="3" value="" style="rounded=0;whiteSpace=wrap;html=1;direction=south;fillColor=#f5f5f5;fontColor=#333333;strokeColor=#666666;" parent="1" vertex="1">
                    <mxGeometry x="42" y="57.5" width="108" height="480" as="geometry"/>
                </mxCell>
                <mxCell id="4" value="" style="rounded=0;whiteSpace=wrap;html=1;direction=south;fillColor=#f5f5f5;fontColor=#333333;strokeColor=#666666;" parent="1" vertex="1">
                    <mxGeometry x="1105" y="56.25" width="140" height="482.5" as="geometry"/>
                </mxCell>
                <mxCell id="5" value="" style="rounded=0;whiteSpace=wrap;html=1;direction=south;fillColor=#FFFFFF;fontColor=#333333;strokeColor=#000000;" parent="1" vertex="1">
                    <mxGeometry x="295" y="30" width="670" height="480" as="geometry"/>
                </mxCell>
                <mxCell id="53" style="edgeStyle=none;html=1;exitX=1;exitY=0.5;exitDx=0;exitDy=0;entryX=0;entryY=0.5;entryDx=0;entryDy=0;fontSize=9;fontColor=#000000;endArrow=open;endFill=0;strokeColor=#000000;" parent="1" source="284" target="320" edge="1">
                    <mxGeometry relative="1" as="geometry">
                        <mxPoint x="300" y="127.5" as="sourcePoint"/>
                        <mxPoint x="400" y="127.5" as="targetPoint"/>
                    </mxGeometry>
                </mxCell>
                <mxCell id="54" value="ranges:&amp;nbsp;ℚ^{360}&amp;nbsp;" style="edgeLabel;html=1;align=center;verticalAlign=middle;resizable=0;points=[];fontSize=9;fontColor=#000000;labelBackgroundColor=#FFFFFF;" parent="53" vertex="1" connectable="0">
                    <mxGeometry x="-0.4095" y="2" relative="1" as="geometry">
                        <mxPoint x="13" y="-10" as="offset"/>
                    </mxGeometry>
                </mxCell>
                <mxCell id="18" style="edgeStyle=none;html=1;entryX=0;entryY=0.5;entryDx=0;entryDy=0;startArrow=none;endArrow=open;endFill=0;strokeColor=#000000;exitX=1;exitY=0.5;exitDx=0;exitDy=0;" parent="1" target="281" edge="1" source="278">
                    <mxGeometry relative="1" as="geometry">
                        <mxPoint x="200" y="220" as="sourcePoint"/>
                        <mxPoint x="285" y="195" as="targetPoint"/>
                    </mxGeometry>
                </mxCell>
                <mxCell id="19" value="/gazebo/position" style="edgeLabel;html=1;align=center;verticalAlign=middle;resizable=0;points=[];spacingBottom=8;" parent="18" vertex="1" connectable="0">
                    <mxGeometry x="0.32" y="-4" relative="1" as="geometry">
                        <mxPoint x="-18" y="-11" as="offset"/>
                    </mxGeometry>
                </mxCell>
                <mxCell id="73" value="positions:&amp;nbsp;ℚ^{6}&amp;nbsp;&amp;nbsp;" style="edgeStyle=orthogonalEdgeStyle;html=1;labelBackgroundColor=#FFFFFF;fontSize=9;fontColor=#000000;startArrow=none;startFill=0;endArrow=open;endFill=0;strokeColor=#000000;rounded=0;spacing=3;spacingTop=-7;entryX=0;entryY=0.5;entryDx=0;entryDy=0;fillColor=#0050ef;exitX=1;exitY=0.5;exitDx=0;exitDy=0;" parent="1" target="318" edge="1" source="281">
                    <mxGeometry x="0.2108" y="1" relative="1" as="geometry">
                        <mxPoint x="380" y="545.5" as="targetPoint"/>
                        <Array as="points">
                            <mxPoint x="320" y="195"/>
                            <mxPoint x="320" y="161"/>
                        </Array>
                        <mxPoint as="offset"/>
                        <mxPoint x="300" y="190" as="sourcePoint"/>
                    </mxGeometry>
                </mxCell>
                <mxCell id="27" style="edgeStyle=none;html=1;entryX=0;entryY=0.5;entryDx=0;entryDy=0;startArrow=none;endArrow=open;endFill=0;strokeColor=#000000;" parent="1" source="302" target="299" edge="1">
                    <mxGeometry relative="1" as="geometry">
                        <mxPoint x="965" y="132.5" as="sourcePoint"/>
                        <mxPoint x="1090" y="131.25" as="targetPoint"/>
                    </mxGeometry>
                </mxCell>
                <mxCell id="28" value="/processor/state" style="edgeLabel;html=1;align=center;verticalAlign=middle;resizable=0;points=[];" parent="27" vertex="1" connectable="0">
                    <mxGeometry x="0.32" y="-4" relative="1" as="geometry">
                        <mxPoint x="-26" y="-14" as="offset"/>
                    </mxGeometry>
                </mxCell>
                <mxCell id="31" style="edgeStyle=none;html=1;entryX=0;entryY=0.5;entryDx=0;entryDy=0;startArrow=none;endArrow=open;endFill=0;strokeColor=#000000;exitX=1;exitY=0.5;exitDx=0;exitDy=0;" parent="1" source="301" edge="1">
                    <mxGeometry relative="1" as="geometry">
                        <mxPoint x="965" y="220" as="sourcePoint"/>
                        <mxPoint x="1095" y="218.75" as="targetPoint"/>
                    </mxGeometry>
                </mxCell>
                <mxCell id="32" value="/processor/terminate" style="edgeLabel;html=1;align=center;verticalAlign=middle;resizable=0;points=[];" parent="31" vertex="1" connectable="0">
                    <mxGeometry x="0.32" y="-4" relative="1" as="geometry">
                        <mxPoint x="-26" y="-14" as="offset"/>
                    </mxGeometry>
                </mxCell>
                <mxCell id="35" style="edgeStyle=none;html=1;entryX=0;entryY=0.5;entryDx=0;entryDy=0;startArrow=none;endArrow=open;endFill=0;strokeColor=#000000;exitX=1;exitY=0.5;exitDx=0;exitDy=0;" parent="1" source="300" target="297" edge="1">
                    <mxGeometry relative="1" as="geometry">
                        <mxPoint x="950" y="270" as="sourcePoint"/>
                        <mxPoint x="1095" y="268.75" as="targetPoint"/>
                    </mxGeometry>
                </mxCell>
                <mxCell id="36" value="/processor/reward" style="edgeLabel;html=1;align=center;verticalAlign=middle;resizable=0;points=[];" parent="35" vertex="1" connectable="0">
                    <mxGeometry x="0.32" y="-4" relative="1" as="geometry">
                        <mxPoint x="-16" y="-17" as="offset"/>
                    </mxGeometry>
                </mxCell>
                <mxCell id="45" value="&lt;span style=&quot;font-size: 12px&quot;&gt;CalcDistance&lt;/span&gt;" style="rounded=0;whiteSpace=wrap;html=1;fontSize=9;fillColor=#F5F5F5;strokeColor=#666666;shadow=0;sketch=0;glass=0;fontColor=#333333;" parent="1" vertex="1">
                    <mxGeometry x="570" y="270" width="90" height="30" as="geometry"/>
                </mxCell>
                <mxCell id="46" value="CalcHeading" style="rounded=0;whiteSpace=wrap;html=1;fontSize=9;fillColor=#F5F5F5;strokeColor=#666666;shadow=0;sketch=0;glass=0;fontColor=#333333;" parent="1" vertex="1">
                    <mxGeometry x="600" y="162.5" width="90" height="40" as="geometry"/>
                </mxCell>
                <mxCell id="47" value="&lt;span style=&quot;color: rgb(0 , 0 , 0)&quot;&gt;ScanDiscretization&lt;/span&gt;" style="rounded=0;whiteSpace=wrap;html=1;fontSize=9;fillColor=#f5f5f5;strokeColor=#666666;shadow=0;sketch=0;glass=0;fontColor=#333333;" parent="1" vertex="1">
                    <mxGeometry x="625" y="108.75" width="90" height="31.25" as="geometry"/>
                </mxCell>
                <mxCell id="63" value="&lt;font style=&quot;font-size: 7px&quot;&gt;EulerFromQuaternion&lt;/font&gt;" style="rounded=0;whiteSpace=wrap;html=1;fontSize=9;fillColor=#F5F5F5;strokeColor=#666666;fontColor=#333333;" parent="1" vertex="1">
                    <mxGeometry x="485" y="192.5" width="80" height="20" as="geometry"/>
                </mxCell>
                <mxCell id="79" value="&lt;font style=&quot;font-size: 16px&quot;&gt;&lt;b&gt;&lt;i&gt;Preprocessor&lt;/i&gt;&lt;/b&gt;&lt;/font&gt;" style="text;html=1;resizable=0;autosize=1;align=center;verticalAlign=middle;points=[];fillColor=none;strokeColor=none;rounded=0;labelBackgroundColor=#FFFFFF;fontSize=9;fontColor=#000000;" parent="1" vertex="1">
                    <mxGeometry x="320" y="37.5" width="120" height="20" as="geometry"/>
                </mxCell>
                <mxCell id="98" value="&lt;b style=&quot;font-size: 42px;&quot;&gt;&lt;font style=&quot;font-size: 42px;&quot;&gt;Agent&lt;/font&gt;&lt;/b&gt;" style="text;html=1;resizable=0;autosize=1;align=center;verticalAlign=middle;points=[];fillColor=none;strokeColor=none;rounded=0;labelBackgroundColor=#FFFFFF;fontSize=42;fontColor=#000000;rotation=-90;" parent="1" vertex="1">
                    <mxGeometry x="1110" y="256.25" width="130" height="60" as="geometry"/>
                </mxCell>
                <mxCell id="100" value="&lt;span style=&quot;font-size: 12px&quot;&gt;CalcReward&lt;/span&gt;" style="rounded=0;whiteSpace=wrap;html=1;fontSize=9;fillColor=#F5F5F5;strokeColor=#666666;shadow=0;sketch=0;glass=0;fontColor=#333333;" parent="1" vertex="1">
                    <mxGeometry x="810" y="262.5" width="90" height="67.5" as="geometry"/>
                </mxCell>
                <mxCell id="115" style="edgeStyle=none;html=1;entryX=0;entryY=0.5;entryDx=0;entryDy=0;startArrow=open;endArrow=none;endFill=0;strokeColor=#000000;startFill=0;exitX=1;exitY=0.5;exitDx=0;exitDy=0;" parent="1" source="286" target="292" edge="1">
                    <mxGeometry relative="1" as="geometry">
                        <mxPoint x="151.9999999999999" y="480" as="sourcePoint"/>
                        <mxPoint x="285" y="480" as="targetPoint"/>
                    </mxGeometry>
                </mxCell>
                <mxCell id="116" value="/gazebo/step" style="edgeLabel;html=1;align=center;verticalAlign=middle;resizable=0;points=[];" parent="115" vertex="1" connectable="0">
                    <mxGeometry x="0.32" y="-4" relative="1" as="geometry">
                        <mxPoint x="-26" y="-14" as="offset"/>
                    </mxGeometry>
                </mxCell>
                <mxCell id="135" value="&lt;span style=&quot;font-size: 12px&quot;&gt;CombineState&lt;/span&gt;" style="rounded=0;whiteSpace=wrap;html=1;fontSize=9;fillColor=#f5f5f5;strokeColor=#666666;shadow=0;sketch=0;glass=0;fontColor=#333333;" parent="1" vertex="1">
                    <mxGeometry x="820" y="108.75" width="90" height="47.5" as="geometry"/>
                </mxCell>
                <mxCell id="99" value="&lt;span style=&quot;font-size: 12px&quot;&gt;CheckCrash&lt;/span&gt;" style="rounded=0;whiteSpace=wrap;html=1;fontSize=9;fillColor=#F5F5F5;strokeColor=#666666;shadow=0;sketch=0;glass=0;fontColor=#333333;" parent="1" vertex="1">
                    <mxGeometry x="790" y="187.5" width="90" height="32.5" as="geometry"/>
                </mxCell>
                <mxCell id="147" style="edgeStyle=orthogonalEdgeStyle;rounded=0;jumpSize=15;html=1;labelBackgroundColor=#FFFFFF;fontSize=17;fontColor=#3333FF;startArrow=none;startFill=0;endArrow=open;endFill=0;strokeColor=#000000;entryX=0;entryY=0.5;entryDx=0;entryDy=0;exitX=1.001;exitY=0.415;exitDx=0;exitDy=0;exitPerimeter=0;" parent="1" target="47" edge="1" source="273">
                    <mxGeometry relative="1" as="geometry">
                        <mxPoint x="490" y="119" as="sourcePoint"/>
                        <mxPoint x="620" y="119" as="targetPoint"/>
                        <Array as="points">
                            <mxPoint x="625" y="125"/>
                        </Array>
                    </mxGeometry>
                </mxCell>
                <mxCell id="148" style="edgeStyle=orthogonalEdgeStyle;rounded=0;jumpSize=15;html=1;exitX=1;exitY=0.385;exitDx=0;exitDy=0;entryX=0;entryY=0.25;entryDx=0;entryDy=0;labelBackgroundColor=#FFFFFF;fontSize=17;fontColor=#3333FF;startArrow=none;startFill=0;endArrow=open;endFill=0;strokeColor=#000000;exitPerimeter=0;" parent="1" source="47" target="135" edge="1">
                    <mxGeometry relative="1" as="geometry">
                        <mxPoint x="510" y="382.5" as="sourcePoint"/>
                        <mxPoint x="580" y="277.5" as="targetPoint"/>
                    </mxGeometry>
                </mxCell>
                <mxCell id="152" style="edgeStyle=orthogonalEdgeStyle;rounded=0;jumpSize=15;html=1;entryX=0;entryY=0.5;entryDx=0;entryDy=0;labelBackgroundColor=#FFFFFF;fontSize=17;fontColor=#3333FF;startArrow=none;startFill=0;endArrow=open;endFill=0;strokeColor=#000000;exitX=1;exitY=0.5;exitDx=0;exitDy=0;" parent="1" source="311" target="302" edge="1">
                    <mxGeometry relative="1" as="geometry">
                        <mxPoint x="720" y="280" as="sourcePoint"/>
                        <mxPoint x="950" y="132.5" as="targetPoint"/>
                        <Array as="points"/>
                    </mxGeometry>
                </mxCell>
                <mxCell id="160" value="&lt;span style=&quot;font-size: 12px&quot;&gt;SetGoal&lt;/span&gt;" style="rounded=0;whiteSpace=wrap;html=1;fontSize=9;fillColor=#F5F5F5;strokeColor=#666666;shadow=0;sketch=0;glass=0;fontColor=#333333;" parent="1" vertex="1">
                    <mxGeometry x="380" y="300" width="90" height="40" as="geometry"/>
                </mxCell>
                <mxCell id="161" style="edgeStyle=orthogonalEdgeStyle;rounded=0;jumpSize=15;html=1;entryX=0;entryY=0.5;entryDx=0;entryDy=0;labelBackgroundColor=#FFFFFF;fontSize=17;fontColor=#3333FF;startArrow=none;startFill=0;endArrow=open;endFill=0;strokeColor=#000000;fillColor=#60a917;exitX=1;exitY=0.5;exitDx=0;exitDy=0;" parent="1" target="301" edge="1" source="310">
                    <mxGeometry relative="1" as="geometry">
                        <Array as="points">
                            <mxPoint x="910" y="280"/>
                            <mxPoint x="910" y="220"/>
                        </Array>
                        <mxPoint x="900" y="280" as="sourcePoint"/>
                        <mxPoint x="950" y="220" as="targetPoint"/>
                    </mxGeometry>
                </mxCell>
                <mxCell id="163" style="edgeStyle=orthogonalEdgeStyle;rounded=0;jumpSize=15;html=1;exitX=1;exitY=0.5;exitDx=0;exitDy=0;entryX=0;entryY=0.5;entryDx=0;entryDy=0;labelBackgroundColor=#FFFFFF;fontSize=17;fontColor=#3333FF;startArrow=none;startFill=0;endArrow=open;endFill=0;strokeColor=#000000;fillColor=#60a917;" parent="1" source="309" target="300" edge="1">
                    <mxGeometry relative="1" as="geometry">
                        <Array as="points">
                            <mxPoint x="930" y="309"/>
                            <mxPoint x="930" y="270"/>
                        </Array>
                        <mxPoint x="870" y="249.81" as="sourcePoint"/>
                        <mxPoint x="950" y="270" as="targetPoint"/>
                    </mxGeometry>
                </mxCell>
                <mxCell id="165" style="edgeStyle=orthogonalEdgeStyle;rounded=0;jumpSize=15;html=1;exitX=1;exitY=0.5;exitDx=0;exitDy=0;labelBackgroundColor=#FFFFFF;fontSize=13;fontColor=#3333FF;startArrow=none;startFill=0;endArrow=open;endFill=0;strokeColor=#000000;entryX=1;entryY=0.5;entryDx=0;entryDy=0;" parent="1" edge="1">
                    <mxGeometry relative="1" as="geometry">
                        <mxPoint x="490" y="655" as="sourcePoint"/>
                        <mxPoint x="490" y="655" as="targetPoint"/>
                        <Array as="points"/>
                    </mxGeometry>
                </mxCell>
                <mxCell id="173" value="distances:&amp;nbsp;ℚ^{360}&amp;nbsp;" style="edgeLabel;html=1;align=center;verticalAlign=middle;resizable=0;points=[];fontSize=9;fontColor=#000000;labelBackgroundColor=#FFFFFF;" parent="1" vertex="1" connectable="0">
                    <mxGeometry x="559.9951724137931" y="108.75" as="geometry"/>
                </mxCell>
                <mxCell id="178" value="&lt;font style=&quot;font-size: 7px&quot;&gt;scanState:&amp;nbsp;ℚ^{29}&amp;nbsp;&lt;/font&gt;" style="edgeLabel;html=1;align=center;verticalAlign=middle;resizable=0;points=[];fontSize=9;fontColor=#000000;labelBackgroundColor=#FFFFFF;" parent="1" vertex="1" connectable="0">
                    <mxGeometry x="774.9951724137931" y="108.75" as="geometry">
                        <mxPoint x="-11" y="4" as="offset"/>
                    </mxGeometry>
                </mxCell>
                <mxCell id="179" value="&lt;font style=&quot;font-size: 7px&quot;&gt;state:&amp;nbsp;ℚ^{31}&amp;nbsp;&lt;/font&gt;" style="edgeLabel;html=1;align=center;verticalAlign=middle;resizable=0;points=[];fontSize=9;fontColor=#000000;labelBackgroundColor=#FFFFFF;" parent="1" vertex="1" connectable="0">
                    <mxGeometry x="939.9951724137931" y="120" as="geometry">
                        <mxPoint x="1" y="-7" as="offset"/>
                    </mxGeometry>
                </mxCell>
                <mxCell id="184" value="&lt;font style=&quot;font-size: 7px&quot;&gt;eulerAngles:&amp;nbsp;ℚ^{3}&amp;nbsp;&amp;nbsp;&lt;/font&gt;" style="edgeStyle=orthogonalEdgeStyle;html=1;labelBackgroundColor=#FFFFFF;fontSize=9;fontColor=#000000;startArrow=none;startFill=0;endArrow=open;endFill=0;strokeColor=#000000;rounded=0;spacing=3;spacingTop=-7;fillColor=#0050ef;exitX=0.5;exitY=0;exitDx=0;exitDy=0;entryX=0;entryY=0.5;entryDx=0;entryDy=0;" parent="1" source="63" target="46" edge="1">
                    <mxGeometry x="-0.177" relative="1" as="geometry">
                        <mxPoint x="540" y="198" as="targetPoint"/>
                        <Array as="points">
                            <mxPoint x="525" y="183"/>
                        </Array>
                        <mxPoint as="offset"/>
                        <mxPoint x="465" y="221.38" as="sourcePoint"/>
                    </mxGeometry>
                </mxCell>
                <mxCell id="185" value="&lt;span style=&quot;font-size: 7px&quot;&gt;GetQuater&lt;/span&gt;" style="rounded=0;whiteSpace=wrap;html=1;fontSize=9;fillColor=#F5F5F5;strokeColor=#666666;fontColor=#333333;" parent="1" vertex="1">
                    <mxGeometry x="430" y="150" width="55" height="20" as="geometry"/>
                </mxCell>
                <mxCell id="186" value="&lt;font style=&quot;font-size: 7px&quot;&gt;quater:&amp;nbsp;ℚ^{4}&amp;nbsp;&amp;nbsp;&lt;/font&gt;" style="edgeStyle=orthogonalEdgeStyle;html=1;labelBackgroundColor=#FFFFFF;fontSize=9;fontColor=#000000;startArrow=none;startFill=0;endArrow=open;endFill=0;strokeColor=#000000;rounded=0;spacing=3;spacingTop=-7;fillColor=#0050ef;entryX=0;entryY=0.5;entryDx=0;entryDy=0;" parent="1" target="63" edge="1">
                    <mxGeometry x="-0.0909" relative="1" as="geometry">
                        <mxPoint x="610" y="192.5" as="targetPoint"/>
                        <Array as="points">
                            <mxPoint x="462" y="192"/>
                            <mxPoint x="463" y="192"/>
                            <mxPoint x="463" y="203"/>
                        </Array>
                        <mxPoint as="offset"/>
                        <mxPoint x="463" y="170" as="sourcePoint"/>
                    </mxGeometry>
                </mxCell>
                <mxCell id="188" value="&lt;font style=&quot;font-size: 7px&quot;&gt;robotPosition:&amp;nbsp;ℚ^{2}&amp;nbsp;&amp;nbsp;&lt;/font&gt;" style="edgeStyle=orthogonalEdgeStyle;html=1;labelBackgroundColor=#FFFFFF;fontSize=9;fontColor=#000000;startArrow=none;startFill=0;endArrow=open;endFill=0;strokeColor=#000000;rounded=0;spacing=3;spacingTop=-7;fillColor=#0050ef;exitX=1;exitY=0.5;exitDx=0;exitDy=0;entryX=0;entryY=0.25;entryDx=0;entryDy=0;" parent="1" source="185" target="46" edge="1">
                    <mxGeometry x="-0.12" relative="1" as="geometry">
                        <mxPoint x="610" y="202.5" as="targetPoint"/>
                        <Array as="points">
                            <mxPoint x="570" y="162"/>
                            <mxPoint x="570" y="172"/>
                        </Array>
                        <mxPoint as="offset"/>
                        <mxPoint x="512.5" y="247.5" as="sourcePoint"/>
                    </mxGeometry>
                </mxCell>
                <mxCell id="189" value="&lt;font style=&quot;font-size: 7px&quot;&gt;goalPosition:&amp;nbsp;ℚ^{2}&amp;nbsp;&amp;nbsp;&lt;/font&gt;" style="edgeStyle=orthogonalEdgeStyle;html=1;labelBackgroundColor=#FFFFFF;fontSize=9;fontColor=#000000;startArrow=none;startFill=0;endArrow=open;endFill=0;strokeColor=#000000;rounded=0;spacing=3;spacingTop=-7;fillColor=#0050ef;exitX=0.551;exitY=0.005;exitDx=0;exitDy=0;entryX=0;entryY=0.75;entryDx=0;entryDy=0;exitPerimeter=0;" parent="1" source="160" target="46" edge="1">
                    <mxGeometry x="0.5864" relative="1" as="geometry">
                        <mxPoint x="610" y="182.5" as="targetPoint"/>
                        <Array as="points">
                            <mxPoint x="430" y="230"/>
                            <mxPoint x="580" y="230"/>
                            <mxPoint x="580" y="193"/>
                        </Array>
                        <mxPoint as="offset"/>
                        <mxPoint x="495" y="172.5" as="sourcePoint"/>
                    </mxGeometry>
                </mxCell>
                <mxCell id="191" value="&lt;font style=&quot;font-size: 7px&quot;&gt;heading:&amp;nbsp;ℚ^{1}&amp;nbsp;&lt;/font&gt;" style="edgeStyle=orthogonalEdgeStyle;html=1;labelBackgroundColor=#FFFFFF;fontSize=9;fontColor=#000000;startArrow=none;startFill=0;endArrow=open;endFill=0;strokeColor=#000000;rounded=0;spacing=3;spacingTop=-7;fillColor=#0050ef;exitX=1;exitY=0.5;exitDx=0;exitDy=0;entryX=0.008;entryY=0.449;entryDx=0;entryDy=0;entryPerimeter=0;" parent="1" source="46" target="135" edge="1">
                    <mxGeometry x="0.5552" relative="1" as="geometry">
                        <mxPoint x="810" y="130" as="targetPoint"/>
                        <Array as="points">
                            <mxPoint x="770" y="183"/>
                            <mxPoint x="770" y="130"/>
                        </Array>
                        <mxPoint as="offset"/>
                        <mxPoint x="690" y="182" as="sourcePoint"/>
                    </mxGeometry>
                </mxCell>
                <mxCell id="192" value="&lt;font style=&quot;font-size: 7px&quot;&gt;heading:&amp;nbsp;ℚ^{1}&amp;nbsp;&lt;/font&gt;" style="edgeStyle=orthogonalEdgeStyle;html=1;labelBackgroundColor=#FFFFFF;fontSize=9;fontColor=#000000;startArrow=none;startFill=0;endArrow=open;endFill=0;rounded=0;spacing=3;spacingTop=-7;exitX=1.011;exitY=0.763;exitDx=0;exitDy=0;exitPerimeter=0;fillColor=#60a917;strokeColor=#000000;" parent="1" edge="1">
                    <mxGeometry x="0.4965" y="1" relative="1" as="geometry">
                        <mxPoint x="810" y="293" as="targetPoint"/>
                        <Array as="points">
                            <mxPoint x="700" y="193"/>
                            <mxPoint x="700" y="293"/>
                            <mxPoint x="810" y="293"/>
                        </Array>
                        <mxPoint as="offset"/>
                        <mxPoint x="690.99" y="193.02000000000004" as="sourcePoint"/>
                    </mxGeometry>
                </mxCell>
                <mxCell id="193" value="&lt;font style=&quot;font-size: 7px&quot;&gt;goalPosition:&amp;nbsp;ℚ^{2}&amp;nbsp;&amp;nbsp;&lt;/font&gt;" style="edgeStyle=orthogonalEdgeStyle;html=1;labelBackgroundColor=#FFFFFF;fontSize=9;fontColor=#000000;startArrow=none;startFill=0;endArrow=open;endFill=0;strokeColor=#000000;rounded=0;spacing=3;spacingTop=-7;entryX=-0.006;entryY=0.651;entryDx=0;entryDy=0;exitX=1;exitY=0.5;exitDx=0;exitDy=0;entryPerimeter=0;fillColor=#d80073;" parent="1" source="160" target="45" edge="1">
                    <mxGeometry x="-0.1533" y="15" relative="1" as="geometry">
                        <mxPoint x="550" y="295.0000000000001" as="targetPoint"/>
                        <Array as="points">
                            <mxPoint x="539" y="315"/>
                            <mxPoint x="539" y="290"/>
                        </Array>
                        <mxPoint as="offset"/>
                        <mxPoint x="310" y="208.75" as="sourcePoint"/>
                    </mxGeometry>
                </mxCell>
                <mxCell id="196" value="&lt;font style=&quot;font-size: 7px&quot;&gt;distance:&amp;nbsp;ℚ^{1}&amp;nbsp;&lt;/font&gt;" style="edgeStyle=orthogonalEdgeStyle;html=1;labelBackgroundColor=#FFFFFF;fontSize=9;fontColor=#000000;startArrow=none;startFill=0;endArrow=open;endFill=0;strokeColor=#000000;rounded=0;spacing=3;spacingTop=-7;fillColor=#d80073;" parent="1" edge="1">
                    <mxGeometry x="0.6701" relative="1" as="geometry">
                        <mxPoint x="820" y="141" as="targetPoint"/>
                        <Array as="points">
                            <mxPoint x="710" y="278"/>
                            <mxPoint x="710" y="250"/>
                            <mxPoint x="780" y="250"/>
                            <mxPoint x="780" y="141"/>
                        </Array>
                        <mxPoint as="offset"/>
                        <mxPoint x="660" y="278" as="sourcePoint"/>
                    </mxGeometry>
                </mxCell>
                <mxCell id="197" value="&lt;font style=&quot;font-size: 7px&quot;&gt;currentDistance:&amp;nbsp;ℚ^{1}&amp;nbsp;&lt;/font&gt;" style="edgeStyle=orthogonalEdgeStyle;html=1;labelBackgroundColor=#FFFFFF;fontSize=9;fontColor=#000000;startArrow=none;startFill=0;endArrow=open;endFill=0;strokeColor=#000000;rounded=0;spacing=3;spacingTop=-7;fillColor=#60a917;" parent="1" edge="1">
                    <mxGeometry x="0.3422" relative="1" as="geometry">
                        <mxPoint x="809" y="282" as="targetPoint"/>
                        <Array as="points">
                            <mxPoint x="809" y="282"/>
                        </Array>
                        <mxPoint as="offset"/>
                        <mxPoint x="660" y="282" as="sourcePoint"/>
                    </mxGeometry>
                </mxCell>
                <mxCell id="198" value="&lt;font style=&quot;font-size: 7px&quot;&gt;isCrash: B&amp;nbsp;&lt;/font&gt;" style="edgeStyle=orthogonalEdgeStyle;html=1;labelBackgroundColor=#FFFFFF;fontSize=9;fontColor=#000000;startArrow=none;startFill=0;endArrow=open;endFill=0;strokeColor=#000000;rounded=0;spacing=3;spacingTop=-7;fillColor=#60a917;exitX=0.5;exitY=1;exitDx=0;exitDy=0;entryX=-0.001;entryY=0.099;entryDx=0;entryDy=0;entryPerimeter=0;" parent="1" source="99" target="100" edge="1">
                    <mxGeometry x="-0.1734" y="10" relative="1" as="geometry">
                        <mxPoint x="819" y="292" as="targetPoint"/>
                        <Array as="points">
                            <mxPoint x="835" y="240"/>
                            <mxPoint x="790" y="240"/>
                            <mxPoint x="790" y="269"/>
                        </Array>
                        <mxPoint as="offset"/>
                        <mxPoint x="670" y="292" as="sourcePoint"/>
                    </mxGeometry>
                </mxCell>
                <mxCell id="201" style="edgeStyle=orthogonalEdgeStyle;rounded=0;jumpSize=15;html=1;entryX=0.75;entryY=0;entryDx=0;entryDy=0;labelBackgroundColor=#FFFFFF;fontSize=17;fontColor=#3333FF;startArrow=none;startFill=0;endArrow=open;endFill=0;strokeColor=#000000;fillColor=#d80073;exitX=0.75;exitY=1;exitDx=0;exitDy=0;" parent="1" target="99" edge="1" source="47">
                    <mxGeometry relative="1" as="geometry">
                        <mxPoint x="710" y="158" as="sourcePoint"/>
                        <mxPoint x="820" y="130.625" as="targetPoint"/>
                        <Array as="points">
                            <mxPoint x="693" y="170"/>
                            <mxPoint x="857" y="170"/>
                        </Array>
                    </mxGeometry>
                </mxCell>
                <mxCell id="202" value="&lt;font style=&quot;font-size: 7px&quot;&gt;scanState:&amp;nbsp;ℚ^{29}&amp;nbsp;&lt;/font&gt;" style="edgeLabel;html=1;align=center;verticalAlign=middle;resizable=0;points=[];fontSize=9;fontColor=#000000;labelBackgroundColor=#FFFFFF;" parent="1" vertex="1" connectable="0">
                    <mxGeometry x="699.9951724137931" y="300" as="geometry">
                        <mxPoint x="129" y="-136" as="offset"/>
                    </mxGeometry>
                </mxCell>
                <mxCell id="204" value="&lt;font style=&quot;font-size: 7px&quot;&gt;action:&amp;nbsp;ℚ^{1}&amp;nbsp;&lt;/font&gt;" style="edgeStyle=orthogonalEdgeStyle;html=1;labelBackgroundColor=#FFFFFF;fontSize=9;fontColor=#000000;startArrow=none;startFill=0;endArrow=open;endFill=0;strokeColor=#000000;rounded=0;spacing=3;spacingTop=-7;fillColor=#a20025;entryX=0;entryY=0.5;entryDx=0;entryDy=0;" parent="1" target="326" edge="1">
                    <mxGeometry x="0.7529" y="-10" relative="1" as="geometry">
                        <mxPoint x="820" y="151" as="targetPoint"/>
                        <Array as="points">
                            <mxPoint x="750" y="380"/>
                            <mxPoint x="750" y="320"/>
                        </Array>
                        <mxPoint as="offset"/>
                        <mxPoint x="294" y="380" as="sourcePoint"/>
                    </mxGeometry>
                </mxCell>
                <mxCell id="205" value="&lt;font style=&quot;font-size: 7px&quot;&gt;absDistance:&amp;nbsp;ℚ^{1}&amp;nbsp;&lt;/font&gt;" style="edgeStyle=orthogonalEdgeStyle;html=1;labelBackgroundColor=#FFFFFF;fontSize=9;fontColor=#000000;startArrow=none;startFill=0;endArrow=open;endFill=0;strokeColor=#000000;rounded=0;spacing=3;spacingTop=-7;fillColor=#60a917;exitX=1;exitY=0.75;exitDx=0;exitDy=0;" parent="1" source="160" edge="1">
                    <mxGeometry x="0.5486" relative="1" as="geometry">
                        <mxPoint x="810" y="308" as="targetPoint"/>
                        <Array as="points">
                            <mxPoint x="510" y="330"/>
                            <mxPoint x="510" y="322"/>
                            <mxPoint x="730" y="322"/>
                            <mxPoint x="730" y="308"/>
                        </Array>
                        <mxPoint as="offset"/>
                        <mxPoint x="960" y="495" as="sourcePoint"/>
                    </mxGeometry>
                </mxCell>
                <mxCell id="212" style="edgeStyle=orthogonalEdgeStyle;html=1;entryX=0;entryY=0.5;entryDx=0;entryDy=0;startArrow=open;endArrow=none;endFill=0;strokeColor=#000000;startFill=0;exitX=1;exitY=0.5;exitDx=0;exitDy=0;elbow=vertical;rounded=0;" parent="1" source="285" target="296" edge="1">
                    <mxGeometry relative="1" as="geometry">
                        <mxPoint x="151.9999999999999" y="517.5" as="sourcePoint"/>
                        <mxPoint x="1095" y="446.25" as="targetPoint"/>
                        <Array as="points">
                            <mxPoint x="1010" y="518"/>
                            <mxPoint x="1010" y="448"/>
                            <mxPoint x="1095" y="448"/>
                        </Array>
                    </mxGeometry>
                </mxCell>
                <mxCell id="213" value="/gazebo/reset" style="edgeLabel;html=1;align=center;verticalAlign=middle;resizable=0;points=[];" parent="212" vertex="1" connectable="0">
                    <mxGeometry x="0.32" y="-4" relative="1" as="geometry">
                        <mxPoint x="217" y="-91" as="offset"/>
                    </mxGeometry>
                </mxCell>
                <mxCell id="215" value="&lt;font style=&quot;font-size: 7px&quot;&gt;robotPosition:&amp;nbsp;ℚ^{2}&amp;nbsp;&amp;nbsp;&lt;/font&gt;" style="edgeStyle=orthogonalEdgeStyle;html=1;labelBackgroundColor=#FFFFFF;fontSize=9;fontColor=#000000;startArrow=none;startFill=0;endArrow=open;endFill=0;strokeColor=#000000;rounded=0;spacing=3;spacingTop=-7;fillColor=#d80073;entryX=0;entryY=0.25;entryDx=0;entryDy=0;" parent="1" target="45" edge="1">
                    <mxGeometry x="0.587" y="7" relative="1" as="geometry">
                        <mxPoint x="610" y="182.5" as="targetPoint"/>
                        <Array as="points">
                            <mxPoint x="450" y="169"/>
                            <mxPoint x="450" y="278"/>
                            <mxPoint x="520" y="278"/>
                        </Array>
                        <mxPoint as="offset"/>
                        <mxPoint x="450" y="169" as="sourcePoint"/>
                    </mxGeometry>
                </mxCell>
                <mxCell id="218" style="edgeStyle=none;html=1;entryX=0;entryY=0.5;entryDx=0;entryDy=0;startArrow=none;endArrow=open;endFill=0;strokeColor=#000000;startFill=0;exitX=1;exitY=0.5;exitDx=0;exitDy=0;entryPerimeter=0;" parent="1" source="280" target="282" edge="1">
                    <mxGeometry relative="1" as="geometry">
                        <mxPoint x="151.9999999999999" y="380" as="sourcePoint"/>
                        <mxPoint x="285" y="377.5" as="targetPoint"/>
                    </mxGeometry>
                </mxCell>
                <mxCell id="219" value="/gazebo/actionIn" style="edgeLabel;html=1;align=center;verticalAlign=middle;resizable=0;points=[];" parent="218" vertex="1" connectable="0">
                    <mxGeometry x="0.32" y="-4" relative="1" as="geometry">
                        <mxPoint x="-26" y="-14" as="offset"/>
                    </mxGeometry>
                </mxCell>
                <mxCell id="222" style="edgeStyle=none;html=1;entryX=0;entryY=0.5;entryDx=0;entryDy=0;startArrow=none;endArrow=open;endFill=0;strokeColor=#000000;startFill=0;exitX=1;exitY=0.5;exitDx=0;exitDy=0;" parent="1" source="288" target="290" edge="1">
                    <mxGeometry relative="1" as="geometry">
                        <mxPoint x="151.9999999999999" y="410" as="sourcePoint"/>
                        <mxPoint x="285" y="407.5" as="targetPoint"/>
                        <Array as="points">
                            <mxPoint x="210" y="408"/>
                        </Array>
                    </mxGeometry>
                </mxCell>
                <mxCell id="223" value="/gazebo/resetState" style="edgeLabel;html=1;align=center;verticalAlign=middle;resizable=0;points=[];" parent="222" vertex="1" connectable="0">
                    <mxGeometry x="0.32" y="-4" relative="1" as="geometry">
                        <mxPoint x="-26" y="-14" as="offset"/>
                    </mxGeometry>
                </mxCell>
                <mxCell id="224" value="&lt;span style=&quot;font-size: 7px&quot;&gt;reset:&amp;nbsp;ℚ^{1}&amp;nbsp;&lt;/span&gt;" style="edgeStyle=orthogonalEdgeStyle;html=1;labelBackgroundColor=#FFFFFF;fontSize=9;fontColor=#000000;startArrow=none;startFill=0;endArrow=open;endFill=0;strokeColor=#000000;rounded=0;spacing=3;spacingTop=-7;fillColor=#a20025;entryX=0.5;entryY=1;entryDx=0;entryDy=0;exitX=1;exitY=0.5;exitDx=0;exitDy=0;" parent="1" source="290" target="308" edge="1">
                    <mxGeometry x="0.4192" y="8" relative="1" as="geometry">
                        <mxPoint x="819.3699999999999" y="328" as="targetPoint"/>
                        <Array as="points">
                            <mxPoint x="625" y="408"/>
                            <mxPoint x="834" y="408"/>
                        </Array>
                        <mxPoint as="offset"/>
                        <mxPoint x="300" y="407.5" as="sourcePoint"/>
                    </mxGeometry>
                </mxCell>
                <mxCell id="225" style="edgeStyle=none;html=1;entryX=0;entryY=0.5;entryDx=0;entryDy=0;startArrow=open;endArrow=none;endFill=0;strokeColor=#000000;startFill=0;exitX=1;exitY=0.5;exitDx=0;exitDy=0;" parent="1" source="287" target="291" edge="1">
                    <mxGeometry relative="1" as="geometry">
                        <mxPoint x="151.9999999999999" y="440" as="sourcePoint"/>
                        <mxPoint x="285" y="440" as="targetPoint"/>
                    </mxGeometry>
                </mxCell>
                <mxCell id="226" value="/gazebo/goalReached" style="edgeLabel;html=1;align=center;verticalAlign=middle;resizable=0;points=[];" parent="225" vertex="1" connectable="0">
                    <mxGeometry x="0.32" y="-4" relative="1" as="geometry">
                        <mxPoint x="-26" y="-14" as="offset"/>
                    </mxGeometry>
                </mxCell>
                <mxCell id="249" style="edgeStyle=none;html=1;entryX=0;entryY=0.5;entryDx=0;entryDy=0;startArrow=none;endArrow=open;endFill=0;strokeColor=#000000;startFill=0;exitX=1;exitY=0.5;exitDx=0;exitDy=0;fillColor=#a20025;" parent="1" source="279" target="283" edge="1">
                    <mxGeometry relative="1" as="geometry">
                        <mxPoint x="151.9999999999999" y="301.25" as="sourcePoint"/>
                        <mxPoint x="285" y="298.75" as="targetPoint"/>
                    </mxGeometry>
                </mxCell>
                <mxCell id="250" value="/gazebo/goalReachedBool" style="edgeLabel;html=1;align=center;verticalAlign=middle;resizable=0;points=[];" parent="249" vertex="1" connectable="0">
                    <mxGeometry x="0.32" y="-4" relative="1" as="geometry">
                        <mxPoint x="-24" y="-24" as="offset"/>
                    </mxGeometry>
                </mxCell>
                <mxCell id="253" value="&lt;span style=&quot;font-size: 12px&quot;&gt;SetInitialValues&lt;/span&gt;" style="rounded=0;whiteSpace=wrap;html=1;fontSize=9;fillColor=#F5F5F5;strokeColor=#666666;shadow=0;sketch=0;glass=0;fontColor=#333333;" parent="1" vertex="1">
                    <mxGeometry x="310" y="212.5" width="90" height="30" as="geometry"/>
                </mxCell>
                <mxCell id="254" style="edgeStyle=orthogonalEdgeStyle;rounded=0;jumpSize=15;html=1;labelBackgroundColor=#FFFFFF;fontSize=13;fontColor=#3333FF;startArrow=none;startFill=0;endArrow=open;endFill=0;strokeColor=#000000;entryX=0;entryY=0.5;entryDx=0;entryDy=0;fillColor=#a20025;exitX=1;exitY=0.75;exitDx=0;exitDy=0;" parent="1" source="283" target="317" edge="1">
                    <mxGeometry relative="1" as="geometry">
                        <mxPoint x="300" y="302.5" as="sourcePoint"/>
                        <mxPoint x="310" y="502.5" as="targetPoint"/>
                        <Array as="points">
                            <mxPoint x="305" y="303"/>
                            <mxPoint x="310" y="303"/>
                            <mxPoint x="310" y="330"/>
                        </Array>
                    </mxGeometry>
                </mxCell>
                <mxCell id="255" style="edgeStyle=orthogonalEdgeStyle;rounded=0;jumpSize=15;html=1;labelBackgroundColor=#FFFFFF;fontSize=13;fontColor=#3333FF;startArrow=none;startFill=0;endArrow=open;endFill=0;strokeColor=#000000;fillColor=#a20025;exitX=0.5;exitY=1;exitDx=0;exitDy=0;" parent="1" source="253" edge="1">
                    <mxGeometry relative="1" as="geometry">
                        <mxPoint x="310" y="312.5" as="sourcePoint"/>
                        <mxPoint x="380" y="315" as="targetPoint"/>
                        <Array as="points">
                            <mxPoint x="355" y="315"/>
                        </Array>
                    </mxGeometry>
                </mxCell>
                <mxCell id="258" value="" style="edgeStyle=orthogonalEdgeStyle;rounded=0;jumpSize=15;html=1;exitX=0;exitY=0.5;exitDx=0;exitDy=0;labelBackgroundColor=#FFFFFF;fontSize=13;fontColor=#3333FF;startArrow=none;startFill=0;endArrow=open;endFill=0;strokeColor=#000000;entryX=1;entryY=0.5;entryDx=0;entryDy=0;" parent="1" target="306" edge="1">
                    <mxGeometry relative="1" as="geometry">
                        <mxPoint x="1095" y="493.75" as="sourcePoint"/>
                        <mxPoint x="830" y="605" as="targetPoint"/>
                        <Array as="points">
                            <mxPoint x="1040" y="494"/>
                            <mxPoint x="1040" y="605"/>
                        </Array>
                    </mxGeometry>
                </mxCell>
                <mxCell id="260" value="" style="rounded=0;whiteSpace=wrap;html=1;direction=south;fillColor=#FFFFFF;fontColor=#333333;strokeColor=#000000;" parent="1" vertex="1">
                    <mxGeometry x="521.5" y="550" width="305" height="110" as="geometry"/>
                </mxCell>
                <mxCell id="261" value="&lt;span style=&quot;font-size: 12px&quot;&gt;StepRobot&lt;/span&gt;" style="rounded=0;whiteSpace=wrap;html=1;fontSize=9;fillColor=#F5F5F5;strokeColor=#666666;shadow=0;sketch=0;glass=0;fontColor=#000000;" parent="1" vertex="1">
                    <mxGeometry x="610" y="590" width="90" height="30" as="geometry"/>
                </mxCell>
                <mxCell id="262" value="&lt;font style=&quot;font-size: 16px&quot;&gt;&lt;b&gt;&lt;i&gt;Postprocessor&lt;/i&gt;&lt;/b&gt;&lt;/font&gt;" style="text;html=1;resizable=0;autosize=1;align=center;verticalAlign=middle;points=[];fillColor=none;strokeColor=none;rounded=0;labelBackgroundColor=#FFFFFF;fontSize=9;fontColor=#000000;" parent="1" vertex="1">
                    <mxGeometry x="525" y="560" width="130" height="20" as="geometry"/>
                </mxCell>
                <mxCell id="263" value="" style="edgeStyle=orthogonalEdgeStyle;rounded=0;jumpSize=15;html=1;labelBackgroundColor=#FFFFFF;fontSize=13;fontColor=#3333FF;startArrow=none;startFill=0;endArrow=open;endFill=0;strokeColor=#000000;exitX=0;exitY=0.5;exitDx=0;exitDy=0;" parent="1" source="322" edge="1">
                    <mxGeometry relative="1" as="geometry">
                        <mxPoint x="780" y="665" as="sourcePoint"/>
                        <mxPoint x="305" y="480" as="targetPoint"/>
                        <Array as="points">
                            <mxPoint x="595" y="605"/>
                            <mxPoint x="360" y="605"/>
                            <mxPoint x="360" y="480"/>
                        </Array>
                    </mxGeometry>
                </mxCell>
                <mxCell id="268" value="" style="edgeStyle=orthogonalEdgeStyle;rounded=0;jumpSize=15;html=1;labelBackgroundColor=#FFFFFF;fontSize=13;fontColor=#3333FF;startArrow=none;startFill=0;endArrow=open;endFill=0;strokeColor=#000000;exitX=0;exitY=0.5;exitDx=0;exitDy=0;entryX=1;entryY=0.5;entryDx=0;entryDy=0;" parent="1" source="306" target="321" edge="1">
                    <mxGeometry relative="1" as="geometry">
                        <mxPoint x="815" y="605" as="sourcePoint"/>
                        <mxPoint x="720" y="605" as="targetPoint"/>
                        <Array as="points"/>
                    </mxGeometry>
                </mxCell>
                <mxCell id="271" value="/post/step" style="edgeLabel;html=1;align=center;verticalAlign=middle;resizable=0;points=[];" parent="1" vertex="1" connectable="0">
                    <mxGeometry x="270.5" y="535" as="geometry">
                        <mxPoint x="682" y="59" as="offset"/>
                    </mxGeometry>
                </mxCell>
                <mxCell id="272" value="&lt;b style=&quot;font-size: 42px&quot;&gt;&lt;font style=&quot;font-size: 42px&quot;&gt;Environment&lt;/font&gt;&lt;/b&gt;" style="text;html=1;resizable=0;autosize=1;align=center;verticalAlign=middle;points=[];fillColor=none;strokeColor=none;rounded=0;labelBackgroundColor=#FFFFFF;fontSize=42;fontColor=#000000;rotation=-90;" vertex="1" parent="1">
                    <mxGeometry x="-42" y="255" width="270" height="60" as="geometry"/>
                </mxCell>
                <mxCell id="273" value="&lt;span style=&quot;color: rgb(0 , 0 , 0)&quot;&gt;LidarScan&lt;/span&gt;" style="rounded=0;whiteSpace=wrap;html=1;fontSize=9;fillColor=#f5f5f5;strokeColor=#666666;shadow=0;sketch=0;glass=0;fontColor=#333333;" vertex="1" parent="1">
                    <mxGeometry x="400" y="110" width="80" height="35" as="geometry"/>
                </mxCell>
                <mxCell id="274" value="" style="whiteSpace=wrap;html=1;aspect=fixed;fillColor=#000000;strokeColor=#000000;" vertex="1" parent="1">
                    <mxGeometry x="140" y="120" width="15" height="15" as="geometry"/>
                </mxCell>
                <mxCell id="278" value="" style="whiteSpace=wrap;html=1;aspect=fixed;fillColor=#000000;strokeColor=#000000;" vertex="1" parent="1">
                    <mxGeometry x="140" y="187.5" width="15" height="15" as="geometry"/>
                </mxCell>
                <mxCell id="279" value="" style="whiteSpace=wrap;html=1;aspect=fixed;fillColor=#000000;strokeColor=#000000;" vertex="1" parent="1">
                    <mxGeometry x="140" y="290" width="15" height="15" as="geometry"/>
                </mxCell>
                <mxCell id="280" value="" style="whiteSpace=wrap;html=1;aspect=fixed;fillColor=#000000;strokeColor=#000000;" vertex="1" parent="1">
                    <mxGeometry x="140" y="370" width="15" height="15" as="geometry"/>
                </mxCell>
                <mxCell id="281" value="" style="whiteSpace=wrap;html=1;aspect=fixed;fillColor=#000000;strokeColor=#000000;" vertex="1" parent="1">
                    <mxGeometry x="290" y="187.5" width="15" height="15" as="geometry"/>
                </mxCell>
                <mxCell id="282" value="" style="whiteSpace=wrap;html=1;aspect=fixed;fillColor=#000000;strokeColor=#000000;" vertex="1" parent="1">
                    <mxGeometry x="290" y="370" width="15" height="15" as="geometry"/>
                </mxCell>
                <mxCell id="283" value="" style="whiteSpace=wrap;html=1;aspect=fixed;fillColor=#000000;strokeColor=#000000;" vertex="1" parent="1">
                    <mxGeometry x="290" y="290" width="15" height="15" as="geometry"/>
                </mxCell>
                <mxCell id="284" value="" style="whiteSpace=wrap;html=1;aspect=fixed;fillColor=#000000;strokeColor=#000000;" vertex="1" parent="1">
                    <mxGeometry x="290" y="120" width="15" height="15" as="geometry"/>
                </mxCell>
                <mxCell id="285" value="" style="whiteSpace=wrap;html=1;aspect=fixed;fillColor=#000000;strokeColor=#000000;" vertex="1" parent="1">
                    <mxGeometry x="140" y="510" width="15" height="15" as="geometry"/>
                </mxCell>
                <mxCell id="286" value="" style="whiteSpace=wrap;html=1;aspect=fixed;fillColor=#000000;strokeColor=#000000;" vertex="1" parent="1">
                    <mxGeometry x="140" y="471.25" width="15" height="15" as="geometry"/>
                </mxCell>
                <mxCell id="287" value="" style="whiteSpace=wrap;html=1;aspect=fixed;fillColor=#000000;strokeColor=#000000;" vertex="1" parent="1">
                    <mxGeometry x="140" y="430" width="15" height="15" as="geometry"/>
                </mxCell>
                <mxCell id="288" value="" style="whiteSpace=wrap;html=1;aspect=fixed;fillColor=#000000;strokeColor=#000000;" vertex="1" parent="1">
                    <mxGeometry x="140" y="400" width="15" height="15" as="geometry"/>
                </mxCell>
                <mxCell id="291" value="" style="whiteSpace=wrap;html=1;aspect=fixed;fillColor=#000000;strokeColor=#000000;" vertex="1" parent="1">
                    <mxGeometry x="290" y="430" width="15" height="15" as="geometry"/>
                </mxCell>
                <mxCell id="292" value="" style="whiteSpace=wrap;html=1;aspect=fixed;fillColor=#000000;strokeColor=#000000;" vertex="1" parent="1">
                    <mxGeometry x="290" y="471.25" width="15" height="15" as="geometry"/>
                </mxCell>
                <mxCell id="290" value="" style="whiteSpace=wrap;html=1;aspect=fixed;fillColor=#000000;strokeColor=#000000;" vertex="1" parent="1">
                    <mxGeometry x="290" y="400" width="15" height="15" as="geometry"/>
                </mxCell>
                <mxCell id="294" value="" style="edgeStyle=orthogonalEdgeStyle;html=1;labelBackgroundColor=#FFFFFF;fontSize=9;fontColor=#000000;startArrow=none;startFill=0;endArrow=none;endFill=0;strokeColor=#000000;rounded=0;spacing=3;spacingTop=-7;fillColor=#a20025;entryX=0.25;entryY=1;entryDx=0;entryDy=0;exitX=1;exitY=0.5;exitDx=0;exitDy=0;" edge="1" parent="1" target="290">
                    <mxGeometry x="0.8622" y="-12" relative="1" as="geometry">
                        <mxPoint x="832.5" y="322.5" as="targetPoint"/>
                        <Array as="points"/>
                        <mxPoint as="offset"/>
                        <mxPoint x="300" y="407.5" as="sourcePoint"/>
                    </mxGeometry>
                </mxCell>
                <mxCell id="296" value="" style="whiteSpace=wrap;html=1;aspect=fixed;fillColor=#000000;strokeColor=#000000;" vertex="1" parent="1">
                    <mxGeometry x="1095" y="440" width="15" height="15" as="geometry"/>
                </mxCell>
                <mxCell id="297" value="" style="whiteSpace=wrap;html=1;aspect=fixed;fillColor=#000000;strokeColor=#000000;" vertex="1" parent="1">
                    <mxGeometry x="1095" y="262.5" width="15" height="15" as="geometry"/>
                </mxCell>
                <mxCell id="298" value="" style="whiteSpace=wrap;html=1;aspect=fixed;fillColor=#000000;strokeColor=#000000;" vertex="1" parent="1">
                    <mxGeometry x="1095" y="212.5" width="15" height="15" as="geometry"/>
                </mxCell>
                <mxCell id="299" value="" style="whiteSpace=wrap;html=1;aspect=fixed;fillColor=#000000;strokeColor=#000000;" vertex="1" parent="1">
                    <mxGeometry x="1095" y="125" width="15" height="15" as="geometry"/>
                </mxCell>
                <mxCell id="300" value="" style="whiteSpace=wrap;html=1;aspect=fixed;fillColor=#000000;strokeColor=#000000;" vertex="1" parent="1">
                    <mxGeometry x="960" y="262.5" width="15" height="15" as="geometry"/>
                </mxCell>
                <mxCell id="301" value="" style="whiteSpace=wrap;html=1;aspect=fixed;fillColor=#000000;strokeColor=#000000;" vertex="1" parent="1">
                    <mxGeometry x="960" y="212.5" width="15" height="15" as="geometry"/>
                </mxCell>
                <mxCell id="302" value="" style="whiteSpace=wrap;html=1;aspect=fixed;fillColor=#000000;strokeColor=#000000;" vertex="1" parent="1">
                    <mxGeometry x="960" y="125" width="15" height="15" as="geometry"/>
                </mxCell>
                <mxCell id="305" value="" style="whiteSpace=wrap;html=1;aspect=fixed;fillColor=#000000;strokeColor=#000000;" vertex="1" parent="1">
                    <mxGeometry x="1095" y="486.25" width="15" height="15" as="geometry"/>
                </mxCell>
                <mxCell id="306" value="" style="whiteSpace=wrap;html=1;aspect=fixed;fillColor=#000000;strokeColor=#000000;" vertex="1" parent="1">
                    <mxGeometry x="820" y="597.5" width="15" height="15" as="geometry"/>
                </mxCell>
                <mxCell id="309" value="" style="whiteSpace=wrap;html=1;aspect=fixed;fillColor=#FFFFFF;strokeColor=#000000;" vertex="1" parent="1">
                    <mxGeometry x="890" y="301.25" width="15" height="15" as="geometry"/>
                </mxCell>
                <mxCell id="310" value="" style="whiteSpace=wrap;html=1;aspect=fixed;fillColor=#FFFFFF;strokeColor=#000000;" vertex="1" parent="1">
                    <mxGeometry x="890" y="272" width="15" height="15" as="geometry"/>
                </mxCell>
                <mxCell id="311" value="" style="whiteSpace=wrap;html=1;aspect=fixed;fillColor=#FFFFFF;strokeColor=#000000;" vertex="1" parent="1">
                    <mxGeometry x="904" y="125" width="15" height="15" as="geometry"/>
                </mxCell>
                <mxCell id="308" value="" style="whiteSpace=wrap;html=1;aspect=fixed;fillColor=#FFFFFF;strokeColor=#000000;" vertex="1" parent="1">
                    <mxGeometry x="826.5" y="321.25" width="15" height="15" as="geometry"/>
                </mxCell>
                <mxCell id="315" value="" style="whiteSpace=wrap;html=1;aspect=fixed;fillColor=#FFFFFF;strokeColor=#000000;" vertex="1" parent="1">
                    <mxGeometry x="850" y="322.5" width="15" height="15" as="geometry"/>
                </mxCell>
                <mxCell id="317" value="" style="whiteSpace=wrap;html=1;aspect=fixed;fillColor=#FFFFFF;strokeColor=#000000;" vertex="1" parent="1">
                    <mxGeometry x="372.5" y="322.5" width="15" height="15" as="geometry"/>
                </mxCell>
                <mxCell id="318" value="" style="whiteSpace=wrap;html=1;aspect=fixed;fillColor=#FFFFFF;strokeColor=#000000;" vertex="1" parent="1">
                    <mxGeometry x="418" y="153" width="15" height="15" as="geometry"/>
                </mxCell>
                <mxCell id="320" value="" style="whiteSpace=wrap;html=1;aspect=fixed;fillColor=#FFFFFF;strokeColor=#000000;" vertex="1" parent="1">
                    <mxGeometry x="393" y="120" width="15" height="15" as="geometry"/>
                </mxCell>
                <mxCell id="321" value="" style="whiteSpace=wrap;html=1;aspect=fixed;fillColor=#FFFFFF;strokeColor=#000000;" vertex="1" parent="1">
                    <mxGeometry x="692.5" y="597.5" width="15" height="15" as="geometry"/>
                </mxCell>
                <mxCell id="322" value="" style="whiteSpace=wrap;html=1;aspect=fixed;fillColor=#FFFFFF;strokeColor=#000000;" vertex="1" parent="1">
                    <mxGeometry x="600" y="597.5" width="15" height="15" as="geometry"/>
                </mxCell>
                <mxCell id="324" value="&lt;span style=&quot;font-size: 7px&quot;&gt;goalReached: B&amp;nbsp;&lt;/span&gt;" style="edgeStyle=orthogonalEdgeStyle;html=1;labelBackgroundColor=#FFFFFF;fontSize=9;fontColor=#000000;startArrow=none;startFill=0;endArrow=open;endFill=0;strokeColor=#000000;rounded=0;spacing=3;spacingTop=-7;fillColor=#a20025;entryX=1;entryY=0.5;entryDx=0;entryDy=0;exitX=0.5;exitY=1;exitDx=0;exitDy=0;" edge="1" parent="1" source="315" target="291">
                    <mxGeometry x="-0.3094" y="-10" relative="1" as="geometry">
                        <mxPoint x="844" y="341.25" as="targetPoint"/>
                        <Array as="points">
                            <mxPoint x="858" y="438"/>
                            <mxPoint x="305" y="438"/>
                        </Array>
                        <mxPoint as="offset"/>
                        <mxPoint x="315" y="417.5" as="sourcePoint"/>
                    </mxGeometry>
                </mxCell>
                <mxCell id="326" value="" style="whiteSpace=wrap;html=1;aspect=fixed;fillColor=#FFFFFF;strokeColor=#000000;" vertex="1" parent="1">
                    <mxGeometry x="805" y="312.5" width="15" height="15" as="geometry"/>
                </mxCell>
            </root>
        </mxGraphModel>
    </diagram>
</mxfile>